<svg xmlns="http://www.w3.org/2000/svg" viewBox="0 0 151.5 47.88" width="150">
          <defs>
            <style>
              .cls-1 {
                fill: #fff;
              }
              .customFont {
                font-family: sans-serif;
                font-size: 18px;
              }
            </style>
          </defs>
          <title>logo_oneweb_white</title>
          <g id="Layer_2" data-name="Layer 2">
            <g id="Layer_1-2" data-name="Layer 1">
              <path class="cls-1"
                d="M63.77,39h-44A19.64,19.64,0,0,1,0,19.5,19.64,19.64,0,0,1,19.73,0h44A19.64,19.64,0,0,1,83.5,19.5,19.64,19.64,0,0,1,63.77,39Zm-44-36A16.62,16.62,0,0,0,3,19.5,16.62,16.62,0,0,0,19.73,36h44A16.62,16.62,0,0,0,80.46,19.5,16.62,16.62,0,0,0,63.77,3Z" />
              <circle class="cls-1" cx="20.5" cy="19.5" r="13" />
              <path class="cls-1"
                d="M91.27,10.88l2.06,13.57h.42l2.73-13.57h6.09l2.73,13.57h.42l2.07-13.57h4.41l-3.43,17.35h-6.3L99.74,14.65h-.42L96.59,28.23h-6.3L86.86,10.88Z" />
              <path class="cls-1"
                d="M122,10.38c5,0,8.43,3.54,8.43,8.75v1.65H117.8a4.23,4.23,0,0,0,4.34,4.16,4.55,4.55,0,0,0,4.34-2.59l3.6,2.1a8.6,8.6,0,0,1-7.87,4.27c-5.18,0-8.93-3.92-8.93-9.31S116.89,10.38,122,10.38Zm4,7.46a3.78,3.78,0,0,0-4-3.68,3.86,3.86,0,0,0-4.13,3.68Z" />
              <path class="cls-1"
                d="M137.57,3.74v9.58H138a6,6,0,0,1,5.53-2.94c4.34,0,8,3.85,8,9.17s-3.64,9.17-8,9.17A6,6,0,0,1,138,25.78h-.49v2.45h-4.34V3.74Zm0,15.81c0,3.29,2,5.25,4.76,5.25s4.76-1.89,4.76-5.25-2.1-5.25-4.76-5.25S137.57,16.26,137.57,19.55Z" />
              <text x="60%" y="93%" fill="white" font-size="20" font-weight="normal" class="customFont">agency</text>
              <!-- <path class="cls-1"
                d="M92.82,34.86c2.37,0,3.62,1.37,3.62,3.47V44h-.88V42.37H95.3a4,4,0,0,1-3.65,1.85c-2,0-3.33-1-3.33-2.54s1.23-2.32,3-2.49l4.2-.38V38.3a2.47,2.47,0,0,0-2.74-2.6A3.55,3.55,0,0,0,89.42,38l-.84-.4A4.45,4.45,0,0,1,92.82,34.86Zm-1.14,8.56a3.53,3.53,0,0,0,3.84-3.59v-.22L91.39,40c-1.3.11-2.16.66-2.16,1.7S90.28,43.42,91.68,43.42Z" /> -->
              <!-- <path class="cls-1"
                d="M107.66,35.12v8.42a4.07,4.07,0,0,1-4.26,4.34A4.84,4.84,0,0,1,99,45.41l.86-.46A3.82,3.82,0,0,0,103.37,47c2,0,3.38-1.23,3.38-3.59V42.12h-.22a3.62,3.62,0,0,1-3.51,2,4.26,4.26,0,0,1-4.28-4.6A4.26,4.26,0,0,1,103,34.86a3.63,3.63,0,0,1,3.51,2h.25v-1.7Zm-.91,4.35a3.48,3.48,0,0,0-3.57-3.77c-2.08,0-3.49,1.45-3.49,3.77s1.41,3.76,3.49,3.76A3.48,3.48,0,0,0,106.75,39.47Z" />
              <path class="cls-1"
                d="M114.43,34.86c2.37,0,3.62,1.37,3.62,3.47V44h-.88V42.37h-.26a4,4,0,0,1-3.65,1.85c-2,0-3.33-1-3.33-2.54s1.22-2.32,3-2.49l4.2-.38V38.3a2.47,2.47,0,0,0-2.74-2.6A3.54,3.54,0,0,0,111,38l-.84-.4A4.45,4.45,0,0,1,114.43,34.86Zm-1.14,8.56a3.53,3.53,0,0,0,3.84-3.59v-.22L113,40c-1.3.11-2.16.66-2.16,1.7S111.89,43.42,113.29,43.42Z" /> -->
              <!-- <path class="cls-1"
                d="M121.81,35.12V36.8h.26a3.42,3.42,0,0,1,3.29-1.87,3.37,3.37,0,0,1,3.55,3.62V44H128V38.63a2.53,2.53,0,0,0-2.81-2.85c-1.89,0-3.33,1.24-3.33,3.76V44h-.91V35.12Z" />
              <path class="cls-1"
                d="M135.78,34.86a4,4,0,0,1,4.11,3.35l-.91.18a3,3,0,0,0-3.2-2.69,3.85,3.85,0,0,0,0,7.68A3.06,3.06,0,0,0,139,40.67l.92.19a4.07,4.07,0,0,1-4.15,3.36,4.68,4.68,0,0,1,0-9.36Z" />
              <path class="cls-1" d="M150,35.12l-5.54,12.5h-1L145.14,44l-3.95-8.92h1l3.34,7.67h.19l3.34-7.67Z" /> -->
              <path class="cls-1"
                d="M42.77,11v2.75h.49c.68-1.58,2.26-3,5.39-3,3.78,0,6.63,2.71,6.63,7.14V28H51V18.26c0-2.37-1.37-3.78-3.85-3.78-2.78,0-4.26,1.72-4.26,4.75V28H38.52V11Z" />
              <path class="cls-1"
                d="M68.16,10.5c5,0,8.28,3.47,8.28,8.59V20.7H64a4.16,4.16,0,0,0,4.26,4.09,4.47,4.47,0,0,0,4.26-2.54l3.54,2.06a8.44,8.44,0,0,1-7.73,4.19c-5.09,0-8.76-3.85-8.76-9.14S63.15,10.5,68.16,10.5ZM72,17.82a3.71,3.71,0,0,0-3.91-3.61,3.79,3.79,0,0,0-4.06,3.61Z" />
            </g>
          </g>
        </svg>